<?xml version="1.0" encoding="UTF-8"?>
<svg width="84px" height="93px" viewBox="0 0 84 93" version="1.1" xmlns="http://www.w3.org/2000/svg" xmlns:xlink="http://www.w3.org/1999/xlink">
    <!-- Generator: Sketch 54.1 (76490) - https://sketchapp.com -->
    <title>ff_logo</title>
    <desc>Created with Sketch.</desc>
    <g id="Page-1" stroke="none" stroke-width="1" fill="none" fill-rule="evenodd">
        <g id="challenge-b_app-state-1_loading" transform="translate(-598.000000, -357.000000)" fill="#F5A623" fill-rule="nonzero">
            <path d="M647.931075,392.054071 C648.133757,392.206847 648.419704,393.645253 648.788925,396.36933 C649.161003,399.114485 649.380863,401.156581 649.448514,402.49568 C649.922067,411.534602 648.974975,417.928707 646.607208,421.678186 C644.03649,425.628529 641.093738,427.603672 637.778865,427.603672 C636.019953,427.603672 634.480927,426.883916 633.161743,425.444384 C631.842559,424.004852 630.946203,421.81211 630.47265,418.866091 C629.999097,415.518342 630.371169,411.969781 631.588877,408.220302 C627.394548,411.635006 624.215023,415.200305 622.050208,418.916307 C619.885392,422.632308 618.752264,426.046961 618.650788,429.160367 C618.549312,432.273774 619.022859,435.253226 620.071441,438.098812 C621.120023,440.944399 622.540662,443.354742 624.3334,445.329914 C626.126137,447.305085 628.07106,448.828288 630.168224,449.899568 C630.235875,449.899568 630.303524,449.933045 630.371175,450 C615.149817,448.393081 605.239171,442.668516 600.638939,432.826134 C598.880026,429.14361 598.000583,425.461142 598.000583,421.778618 C597.932933,412.070146 603.750787,403.433083 615.454319,395.867171 C619.986901,392.921152 623.606147,389.573453 626.312166,385.823974 C629.018185,382.074495 630.675597,378.57615 631.284452,375.328834 C631.893306,372.081517 632.180816,369.035111 632.146991,366.189525 C632.113166,363.343938 631.825655,361.117719 631.284452,359.510799 L630.47265,357 C631.352106,357.200865 632.519059,357.552373 633.973545,358.054536 C635.42803,358.556698 638.201658,359.711654 642.294512,361.519438 C646.387366,363.327223 650.260297,365.352581 653.913423,367.595572 C657.566549,369.838564 661.473305,372.901708 665.63381,376.785097 C669.794314,380.668486 673.1937,384.853109 675.832068,389.339093 C678.673388,394.226806 680.550661,399.51617 681.463942,405.207343 C682.377224,410.898517 682.123538,416.455696 680.702878,421.87905 C678.943966,428.574548 674.665137,434.717575 667.866264,440.308315 C661.067391,445.899056 652.898719,449.129585 643.360001,450 C647.216079,448.259171 650.530902,446.016212 653.304572,443.271058 C656.078241,440.525904 658.192287,437.563191 659.646772,434.382829 C661.101258,431.202468 662.099087,427.9552 662.640291,424.640929 C663.181495,421.326657 663.282969,417.96222 662.944717,414.547516 C662.674115,411.936272 661.963795,409.375283 660.813737,406.864471 C659.663679,404.353659 658.378339,402.244609 656.957679,400.537257 C655.537019,398.829905 654.150205,397.306702 652.797196,395.967603 C651.444186,394.628503 650.294145,393.65767 649.347039,393.055076 L647.931075,392.054071 L647.931075,392.054071 Z" id="ff_logo"></path>
        </g>
    </g>
</svg>